<svg width="286" height="196" fill="none" xmlns="http://www.w3.org/2000/svg"><path d="M7.714 11a2.576 2.576 0 01-2.571 2.571A2.576 2.576 0 012.57 11a2.576 2.576 0 012.572-2.571A2.576 2.576 0 017.714 11zm2.572 0a5.14 5.14 0 00-5.143-5.143A5.14 5.14 0 000 11c0 .613.07 1.245.331 1.798l3.667 7.775c.2.442.663.713 1.145.713s.944-.271 1.155-.713l3.656-7.775c.261-.553.332-1.185.332-1.798zm3.857 62.027c0-.07 0-.14-.03-.211-.07-.211-.563-.432-.764-.532-.572-.322-1.155-.633-1.717-.965-.261-.16-.583-.462-.894-.462-.613 0-1.507 1.818-2.05 1.818-.27 0-.622-.25-.863-.391-1.828-1.015-3.094-2.28-4.108-4.109-.141-.24-.392-.592-.392-.864 0-.542 1.818-1.436 1.818-2.049 0-.311-.301-.633-.462-.894-.332-.562-.643-1.145-.964-1.717-.1-.201-.322-.693-.533-.764-.07-.03-.14-.03-.21-.03-.362 0-1.066.16-1.397.312-.492.21-.814.773-1.065 1.225C.191 63.987 0 64.589 0 65.262c0 .934.382 1.778.693 2.632.221.613.492 1.205.834 1.758 1.054 1.707 3.114 3.766 4.821 4.821a9.392 9.392 0 001.758.834c.854.311 1.698.693 2.632.693.673 0 1.275-.19 1.868-.512.452-.251 1.014-.573 1.226-1.065.15-.332.31-1.035.31-1.396zm-3.867 53.187l-.955 1.929H6.107l-.954-1.929H1.979c.02-.05.03-.11.05-.16l2.13-4.983h7.111l2.13 4.983c.02.05.03.11.05.16h-3.174zm5.153.302c0-.362-.11-.894-.252-1.236l-2.39-5.545c-.14-.331-.543-.592-.894-.592H3.536c-.352 0-.754.261-.894.592l-2.39 5.545A3.732 3.732 0 000 126.516v4.841c0 .352.291.643.643.643h14.143a.647.647 0 00.643-.643v-4.841zM9 178.036a.318.318 0 00-.321-.322h-.643a.318.318 0 00-.322.322v3.535h-2.25a.318.318 0 00-.321.322v.643c0 .181.14.321.321.321H8.68c.18 0 .321-.14.321-.321v-4.5zm4.179 3.535a5.47 5.47 0 01-5.465 5.465 5.47 5.47 0 01-5.464-5.465 5.47 5.47 0 015.464-5.464 5.47 5.47 0 015.465 5.464zm2.25 0a7.716 7.716 0 00-7.715-7.714A7.716 7.716 0 000 181.571a7.717 7.717 0 007.714 7.715 7.717 7.717 0 007.715-7.715z" fill="#7E5AFF"/><path d="M24.565 7.292c1.668 0 2.946.552 3.834 1.656.888 1.092 1.332 2.64 1.332 4.644 0 1.404-.24 2.592-.72 3.564s-1.152 1.71-2.016 2.214c-.864.492-1.872.738-3.024.738-1.248 0-2.244-.228-2.988-.684l.522-1.044c.6.396 1.416.594 2.448.594 1.392 0 2.484-.438 3.276-1.314.792-.888 1.188-2.172 1.188-3.852 0-.312-.018-.654-.054-1.026a3.445 3.445 0 01-1.494 1.602c-.684.372-1.47.558-2.358.558-.828 0-1.566-.156-2.214-.468a3.62 3.62 0 01-1.494-1.314c-.36-.576-.54-1.242-.54-1.998 0-.768.186-1.446.558-2.034a3.635 3.635 0 011.53-1.35c.66-.324 1.398-.486 2.214-.486zm.144 6.552c.636 0 1.194-.12 1.674-.36.492-.24.876-.57 1.152-.99.276-.42.414-.888.414-1.404 0-.48-.132-.924-.396-1.332-.252-.408-.63-.738-1.134-.99-.504-.252-1.104-.378-1.8-.378-.912 0-1.656.252-2.232.756-.564.492-.846 1.152-.846 1.98 0 .828.282 1.488.846 1.98.576.492 1.35.738 2.322.738zM35.067 7.4V20H33.77V8.552H30.8V7.4h4.266zm19.368 0V20h-1.098l-8.1-10.224V20h-1.331V7.4h1.098l8.117 10.224V7.4h1.314zm7.713 12.69c-.912 0-1.734-.204-2.466-.612a4.594 4.594 0 01-1.728-1.728c-.42-.732-.63-1.56-.63-2.484 0-.924.21-1.752.63-2.484a4.465 4.465 0 011.728-1.71c.732-.408 1.554-.612 2.466-.612.912 0 1.734.204 2.466.612a4.34 4.34 0 011.71 1.71c.42.732.63 1.56.63 2.484 0 .924-.21 1.752-.63 2.484a4.465 4.465 0 01-1.71 1.728c-.732.408-1.554.612-2.466.612zm0-1.134c.672 0 1.272-.15 1.8-.45.54-.312.96-.75 1.26-1.314.3-.564.45-1.206.45-1.926s-.15-1.362-.45-1.926c-.3-.564-.72-.996-1.26-1.296-.528-.312-1.128-.468-1.8-.468-.672 0-1.278.156-1.818.468-.528.3-.948.732-1.26 1.296-.3.564-.45 1.206-.45 1.926s.15 1.362.45 1.926a3.406 3.406 0 001.26 1.314c.54.3 1.146.45 1.818.45zm7.415-12.312h1.278V20h-1.278V6.644zm8.146 3.816c1.236 0 2.184.312 2.844.936.66.612.99 1.524.99 2.736V20H80.32v-1.476c-.288.492-.714.876-1.278 1.152-.552.276-1.212.414-1.98.414-1.056 0-1.896-.252-2.52-.756-.624-.504-.936-1.17-.936-1.998 0-.804.288-1.452.864-1.944.588-.492 1.518-.738 2.79-.738h3.006v-.576c0-.816-.228-1.434-.684-1.854-.456-.432-1.122-.648-1.998-.648-.6 0-1.176.102-1.728.306a4.233 4.233 0 00-1.422.81l-.576-.954a4.99 4.99 0 011.728-.936 6.566 6.566 0 012.124-.342zm-.45 8.622c.72 0 1.338-.162 1.854-.486.516-.336.9-.816 1.152-1.44v-1.548h-2.97c-1.62 0-2.43.564-2.43 1.692 0 .552.21.99.63 1.314.42.312 1.008.468 1.764.468zm12.58-8.622c1.187 0 2.13.348 2.825 1.044.708.684 1.062 1.686 1.062 3.006V20h-1.278v-5.364c0-.984-.246-1.734-.738-2.25s-1.194-.774-2.106-.774c-1.02 0-1.83.306-2.43.918-.588.6-.882 1.434-.882 2.502V20h-1.278v-9.468h1.224v1.746a3.508 3.508 0 011.44-1.332c.624-.324 1.344-.486 2.16-.486zm21.248 8.388V20h-8.91V7.4h8.64v1.152h-7.308v4.482h6.516v1.134h-6.516v4.68h7.578zM119.714 20l-3.006-3.96-3.024 3.96h-1.44l3.744-4.86-3.564-4.608h1.44l2.844 3.708 2.844-3.708h1.404l-3.564 4.608 3.78 4.86h-1.458zm8.572-.576c-.24.216-.54.384-.9.504a3.683 3.683 0 01-1.098.162c-.888 0-1.572-.24-2.052-.72s-.72-1.158-.72-2.034v-5.724h-1.692v-1.08h1.692v-2.07h1.278v2.07h2.88v1.08h-2.88v5.652c0 .564.138.996.414 1.296.288.288.696.432 1.224.432.264 0 .516-.042.756-.126.252-.084.468-.204.648-.36l.45.918zm10.236-3.762h-7.92c.072.984.45 1.782 1.134 2.394.684.6 1.548.9 2.592.9a4.19 4.19 0 001.62-.306 3.635 3.635 0 001.278-.936l.72.828c-.42.504-.948.888-1.584 1.152a5.26 5.26 0 01-2.07.396c-.972 0-1.836-.204-2.592-.612a4.558 4.558 0 01-1.746-1.728c-.42-.732-.63-1.56-.63-2.484 0-.924.198-1.752.594-2.484a4.45 4.45 0 011.656-1.71c.708-.408 1.5-.612 2.376-.612.876 0 1.662.204 2.358.612a4.323 4.323 0 011.638 1.71c.396.72.594 1.548.594 2.484l-.018.396zm-4.572-4.104c-.912 0-1.68.294-2.304.882-.612.576-.96 1.332-1.044 2.268h6.714c-.084-.936-.438-1.692-1.062-2.268-.612-.588-1.38-.882-2.304-.882zm12.015-1.098c1.188 0 2.13.348 2.826 1.044.708.684 1.062 1.686 1.062 3.006V20h-1.278v-5.364c0-.984-.246-1.734-.738-2.25s-1.194-.774-2.106-.774c-1.02 0-1.83.306-2.43.918-.588.6-.882 1.434-.882 2.502V20h-1.278v-9.468h1.224v1.746a3.508 3.508 0 011.44-1.332c.624-.324 1.344-.486 2.16-.486zm9.896 9.63a7.545 7.545 0 01-2.214-.324c-.696-.228-1.242-.51-1.638-.846l.576-1.008c.396.312.894.57 1.494.774.6.192 1.224.288 1.872.288.864 0 1.5-.132 1.908-.396.42-.276.63-.66.63-1.152 0-.348-.114-.618-.342-.81a2.116 2.116 0 00-.864-.45c-.348-.108-.81-.21-1.386-.306a17.522 17.522 0 01-1.854-.432 2.863 2.863 0 01-1.206-.774c-.324-.36-.486-.858-.486-1.494 0-.792.33-1.44.99-1.944.66-.504 1.578-.756 2.754-.756.612 0 1.224.084 1.836.252.612.156 1.116.366 1.512.63l-.558 1.026c-.78-.54-1.71-.81-2.79-.81-.816 0-1.434.144-1.854.432-.408.288-.612.666-.612 1.134 0 .36.114.648.342.864.24.216.534.378.882.486.348.096.828.198 1.44.306.756.144 1.362.288 1.818.432.456.144.846.39 1.17.738.324.348.486.828.486 1.44 0 .828-.348 1.488-1.044 1.98-.684.48-1.638.72-2.862.72zm6.269-9.558h1.278V20h-1.278v-9.468zm.648-2.07a.905.905 0 01-.666-.27.884.884 0 01-.27-.648c0-.24.09-.45.27-.63.18-.18.402-.27.666-.27s.486.09.666.27c.18.168.27.372.27.612 0 .264-.09.486-.27.666a.905.905 0 01-.666.27zm8.056 11.628c-.912 0-1.734-.204-2.466-.612a4.594 4.594 0 01-1.728-1.728c-.42-.732-.63-1.56-.63-2.484 0-.924.21-1.752.63-2.484a4.465 4.465 0 011.728-1.71c.732-.408 1.554-.612 2.466-.612.912 0 1.734.204 2.466.612a4.34 4.34 0 011.71 1.71c.42.732.63 1.56.63 2.484 0 .924-.21 1.752-.63 2.484a4.465 4.465 0 01-1.71 1.728c-.732.408-1.554.612-2.466.612zm0-1.134c.672 0 1.272-.15 1.8-.45.54-.312.96-.75 1.26-1.314.3-.564.45-1.206.45-1.926s-.15-1.362-.45-1.926c-.3-.564-.72-.996-1.26-1.296-.528-.312-1.128-.468-1.8-.468-.672 0-1.278.156-1.818.468-.528.3-.948.732-1.26 1.296-.3.564-.45 1.206-.45 1.926s.15 1.362.45 1.926a3.406 3.406 0 001.26 1.314c.54.3 1.146.45 1.818.45zm12.239-8.496c1.188 0 2.13.348 2.826 1.044.708.684 1.062 1.686 1.062 3.006V20h-1.278v-5.364c0-.984-.246-1.734-.738-2.25s-1.194-.774-2.106-.774c-1.02 0-1.83.306-2.43.918-.588.6-.882 1.434-.882 2.502V20h-1.278v-9.468h1.224v1.746a3.508 3.508 0 011.44-1.332c.624-.324 1.344-.486 2.16-.486zm9.895 9.63a7.545 7.545 0 01-2.214-.324c-.696-.228-1.242-.51-1.638-.846l.576-1.008c.396.312.894.57 1.494.774.6.192 1.224.288 1.872.288.864 0 1.5-.132 1.908-.396.42-.276.63-.66.63-1.152 0-.348-.114-.618-.342-.81a2.116 2.116 0 00-.864-.45c-.348-.108-.81-.21-1.386-.306a17.522 17.522 0 01-1.854-.432 2.863 2.863 0 01-1.206-.774c-.324-.36-.486-.858-.486-1.494 0-.792.33-1.44.99-1.944.66-.504 1.578-.756 2.754-.756.612 0 1.224.084 1.836.252.612.156 1.116.366 1.512.63l-.558 1.026c-.78-.54-1.71-.81-2.79-.81-.816 0-1.434.144-1.854.432-.408.288-.612.666-.612 1.134 0 .36.114.648.342.864.24.216.534.378.882.486.348.096.828.198 1.44.306.756.144 1.362.288 1.818.432.456.144.846.39 1.17.738.324.348.486.828.486 1.44 0 .828-.348 1.488-1.044 1.98-.684.48-1.638.72-2.862.72zm14.724.018c-.936 0-1.836-.15-2.7-.45-.852-.3-1.512-.696-1.98-1.188l.522-1.026c.456.456 1.062.828 1.818 1.116a6.772 6.772 0 002.34.414c1.128 0 1.974-.204 2.538-.612.564-.42.846-.96.846-1.62 0-.504-.156-.906-.468-1.206a2.92 2.92 0 00-1.116-.684c-.444-.168-1.062-.348-1.854-.54-.948-.24-1.704-.468-2.268-.684a3.887 3.887 0 01-1.458-1.026c-.396-.456-.594-1.074-.594-1.854 0-.636.168-1.212.504-1.728.336-.528.852-.948 1.548-1.26.696-.312 1.56-.468 2.592-.468.72 0 1.422.102 2.106.306.696.192 1.296.462 1.8.81l-.45 1.062a5.996 5.996 0 00-1.692-.774 6.12 6.12 0 00-1.764-.27c-1.104 0-1.938.216-2.502.648-.552.42-.828.966-.828 1.638 0 .504.15.912.45 1.224.312.3.696.534 1.152.702.468.156 1.092.33 1.872.522.924.228 1.668.456 2.232.684a3.55 3.55 0 011.458 1.008c.396.444.594 1.05.594 1.818 0 .636-.174 1.218-.522 1.746-.336.516-.858.93-1.566 1.242-.708.3-1.578.45-2.61.45zm15.862-9.576V20h-1.224v-1.728a3.568 3.568 0 01-1.386 1.35c-.588.312-1.26.468-2.016.468-1.236 0-2.214-.342-2.934-1.026-.708-.696-1.062-1.71-1.062-3.042v-5.49h1.278v5.364c0 .996.246 1.752.738 2.268.492.516 1.194.774 2.106.774.996 0 1.782-.3 2.358-.9.576-.612.864-1.458.864-2.538v-4.968h1.278zm3.58 0h1.278V20h-1.278v-9.468zm.648-2.07a.905.905 0 01-.666-.27.884.884 0 01-.27-.648c0-.24.09-.45.27-.63.18-.18.402-.27.666-.27s.486.09.666.27c.18.168.27.372.27.612 0 .264-.09.486-.27.666a.905.905 0 01-.666.27zm9.172 10.962c-.24.216-.54.384-.9.504a3.683 3.683 0 01-1.098.162c-.888 0-1.572-.24-2.052-.72s-.72-1.158-.72-2.034v-5.724h-1.692v-1.08h1.692v-2.07h1.278v2.07h2.88v1.08h-2.88v5.652c0 .564.138.996.414 1.296.288.288.696.432 1.224.432.264 0 .516-.042.756-.126.252-.084.468-.204.648-.36l.45.918zm10.236-3.762h-7.92c.072.984.45 1.782 1.134 2.394.684.6 1.548.9 2.592.9a4.19 4.19 0 001.62-.306 3.635 3.635 0 001.278-.936l.72.828c-.42.504-.948.888-1.584 1.152a5.26 5.26 0 01-2.07.396c-.972 0-1.836-.204-2.592-.612a4.558 4.558 0 01-1.746-1.728c-.42-.732-.63-1.56-.63-2.484 0-.924.198-1.752.594-2.484a4.45 4.45 0 011.656-1.71c.708-.408 1.5-.612 2.376-.612.876 0 1.662.204 2.358.612a4.323 4.323 0 011.638 1.71c.396.72.594 1.548.594 2.484l-.018.396zm-4.572-4.104c-.912 0-1.68.294-2.304.882-.612.576-.96 1.332-1.044 2.268h6.714c-.084-.936-.438-1.692-1.062-2.268-.612-.588-1.38-.882-2.304-.882zm16.276.9c.828 0 1.56.156 2.196.468a3.556 3.556 0 011.512 1.332c.36.564.54 1.224.54 1.98 0 .768-.186 1.446-.558 2.034a3.733 3.733 0 01-1.548 1.368c-.648.312-1.38.468-2.196.468-1.668 0-2.946-.546-3.834-1.638-.888-1.104-1.332-2.658-1.332-4.662 0-1.404.24-2.592.72-3.564s1.152-1.704 2.016-2.196c.864-.504 1.872-.756 3.024-.756 1.248 0 2.244.228 2.988.684L261.9 9.02c-.6-.396-1.416-.594-2.448-.594-1.392 0-2.484.444-3.276 1.332-.792.876-1.188 2.154-1.188 3.834 0 .3.018.642.054 1.026a3.351 3.351 0 011.494-1.584c.684-.384 1.47-.576 2.358-.576zm-.108 6.552c.912 0 1.65-.246 2.214-.738.576-.504.864-1.17.864-1.998 0-.828-.288-1.488-.864-1.98-.564-.492-1.332-.738-2.304-.738-.636 0-1.2.12-1.692.36-.48.24-.858.57-1.134.99-.276.42-.414.888-.414 1.404 0 .48.126.924.378 1.332.264.408.648.738 1.152.99.504.252 1.104.378 1.8.378zM273.394 7.4v.918L268.12 20h-1.404L271.9 8.552h-6.48v2.358h-1.278V7.4h9.252zm6.378 12.708c-.972 0-1.842-.258-2.61-.774-.756-.516-1.35-1.254-1.782-2.214-.42-.972-.63-2.112-.63-3.42 0-1.308.21-2.442.63-3.402.432-.972 1.026-1.716 1.782-2.232.768-.516 1.638-.774 2.61-.774s1.836.258 2.592.774c.768.516 1.368 1.26 1.8 2.232.432.96.648 2.094.648 3.402 0 1.308-.216 2.448-.648 3.42-.432.96-1.032 1.698-1.8 2.214-.756.516-1.62.774-2.592.774zm0-1.188c.732 0 1.374-.204 1.926-.612.564-.408 1.002-1.002 1.314-1.782.312-.78.468-1.722.468-2.826s-.156-2.046-.468-2.826c-.312-.78-.75-1.374-1.314-1.782-.552-.408-1.194-.612-1.926-.612s-1.38.204-1.944.612c-.552.408-.984 1.002-1.296 1.782-.312.78-.468 1.722-.468 2.826s.156 2.046.468 2.826c.312.78.744 1.374 1.296 1.782a3.231 3.231 0 001.944.612zM32.662 70.24h-3.348v3.276H28.18V70.24h-3.348v-1.062h3.348v-3.294h1.134v3.294h3.348v1.062zm7.362 5.868c-.972 0-1.842-.258-2.61-.774-.756-.516-1.35-1.254-1.782-2.214-.42-.972-.63-2.112-.63-3.42 0-1.308.21-2.442.63-3.402.432-.972 1.026-1.716 1.782-2.232.768-.516 1.638-.774 2.61-.774s1.836.258 2.592.774c.768.516 1.368 1.26 1.8 2.232.432.96.648 2.094.648 3.402 0 1.308-.216 2.448-.648 3.42-.432.96-1.032 1.698-1.8 2.214-.756.516-1.62.774-2.592.774zm0-1.188c.732 0 1.374-.204 1.926-.612.564-.408 1.002-1.002 1.314-1.782.312-.78.468-1.722.468-2.826s-.156-2.046-.468-2.826c-.312-.78-.75-1.374-1.314-1.782-.552-.408-1.194-.612-1.926-.612s-1.38.204-1.944.612c-.552.408-.984 1.002-1.296 1.782-.312.78-.468 1.722-.468 2.826s.156 2.046.468 2.826c.312.78.744 1.374 1.296 1.782a3.231 3.231 0 001.944.612zm11.918 1.188c-.972 0-1.842-.258-2.61-.774-.756-.516-1.35-1.254-1.782-2.214-.42-.972-.63-2.112-.63-3.42 0-1.308.21-2.442.63-3.402.432-.972 1.026-1.716 1.782-2.232.768-.516 1.638-.774 2.61-.774s1.836.258 2.592.774c.768.516 1.368 1.26 1.8 2.232.432.96.648 2.094.648 3.402 0 1.308-.216 2.448-.648 3.42-.432.96-1.032 1.698-1.8 2.214-.756.516-1.62.774-2.592.774zm0-1.188c.732 0 1.374-.204 1.926-.612.564-.408 1.002-1.002 1.314-1.782.312-.78.468-1.722.468-2.826s-.156-2.046-.468-2.826c-.312-.78-.75-1.374-1.314-1.782-.552-.408-1.194-.612-1.926-.612s-1.38.204-1.944.612c-.552.408-.984 1.002-1.296 1.782-.312.78-.468 1.722-.468 2.826s.156 2.046.468 2.826c.312.78.744 1.374 1.296 1.782a3.231 3.231 0 001.944.612zM62.295 63.4V76H61V64.552h-2.97V63.4h4.266zm12.007 5.4c1.32.072 2.322.432 3.006 1.08.696.636 1.044 1.47 1.044 2.502 0 .72-.174 1.362-.522 1.926-.348.552-.864.99-1.548 1.314-.684.324-1.518.486-2.502.486a7.73 7.73 0 01-2.592-.432c-.804-.3-1.452-.696-1.944-1.188l.63-1.026c.42.432.978.786 1.674 1.062a6.24 6.24 0 002.232.396c1.032 0 1.83-.222 2.394-.666.564-.456.846-1.08.846-1.872 0-.78-.282-1.392-.846-1.836-.564-.444-1.416-.666-2.556-.666h-.9v-.954l3.492-4.374h-6.444V63.4h8.1v.918L74.302 68.8zm9.012-.234c1.824 0 3.15.33 3.978.99.84.648 1.26 1.56 1.26 2.736 0 .732-.174 1.386-.522 1.962-.336.576-.846 1.032-1.53 1.368-.684.324-1.524.486-2.52.486-.9 0-1.758-.144-2.574-.432-.804-.3-1.452-.696-1.944-1.188l.63-1.026c.42.432.972.786 1.656 1.062a6.096 6.096 0 002.214.396c1.044 0 1.848-.234 2.412-.702.576-.468.864-1.092.864-1.872 0-.864-.324-1.518-.972-1.962-.636-.444-1.716-.666-3.24-.666h-2.682l.648-6.318h6.894v1.152h-5.76l-.432 4.014h1.62zm12.104-.108c.828 0 1.56.156 2.196.468a3.556 3.556 0 011.512 1.332c.36.564.54 1.224.54 1.98 0 .768-.186 1.446-.558 2.034a3.733 3.733 0 01-1.548 1.368c-.648.312-1.38.468-2.196.468-1.668 0-2.946-.546-3.834-1.638-.888-1.104-1.332-2.658-1.332-4.662 0-1.404.24-2.592.72-3.564s1.152-1.704 2.016-2.196c.864-.504 1.872-.756 3.024-.756 1.248 0 2.244.228 2.988.684l-.522 1.044c-.6-.396-1.416-.594-2.448-.594-1.392 0-2.484.444-3.276 1.332-.792.876-1.188 2.154-1.188 3.834 0 .3.018.642.054 1.026a3.351 3.351 0 011.494-1.584c.684-.384 1.47-.576 2.358-.576zm-.108 6.552c.912 0 1.65-.246 2.214-.738.576-.504.864-1.17.864-1.998 0-.828-.288-1.488-.864-1.98-.564-.492-1.332-.738-2.304-.738-.636 0-1.2.12-1.692.36-.48.24-.858.57-1.134.99-.276.42-.414.888-.414 1.404 0 .48.126.924.378 1.332.264.408.648.738 1.152.99.504.252 1.104.378 1.8.378zm6.088-4.446h4.716v1.116h-4.716v-1.116zm13.947-1.17c.792.264 1.398.66 1.818 1.188.432.528.648 1.164.648 1.908 0 .732-.198 1.374-.594 1.926-.396.54-.966.96-1.71 1.26-.732.288-1.596.432-2.592.432-1.512 0-2.7-.324-3.564-.972-.864-.648-1.296-1.53-1.296-2.646 0-.756.204-1.392.612-1.908.42-.528 1.026-.924 1.818-1.188-.648-.252-1.14-.612-1.476-1.08-.336-.48-.504-1.044-.504-1.692 0-1.02.396-1.83 1.188-2.43.804-.6 1.878-.9 3.222-.9.888 0 1.662.138 2.322.414.672.264 1.194.648 1.566 1.152.372.504.558 1.092.558 1.764 0 .648-.174 1.212-.522 1.692-.348.468-.846.828-1.494 1.08zm-5.544-2.736c0 .696.276 1.248.828 1.656.552.408 1.314.612 2.286.612s1.734-.204 2.286-.612c.564-.408.846-.954.846-1.638 0-.708-.288-1.266-.864-1.674-.564-.408-1.32-.612-2.268-.612-.96 0-1.722.204-2.286.612-.552.408-.828.96-.828 1.656zm3.114 8.352c1.116 0 1.986-.228 2.61-.684.636-.456.954-1.074.954-1.854s-.318-1.392-.954-1.836c-.624-.456-1.494-.684-2.61-.684-1.104 0-1.974.228-2.61.684-.624.444-.936 1.056-.936 1.836 0 .792.312 1.416.936 1.872.624.444 1.494.666 2.61.666zm11.911-6.552c.828 0 1.56.156 2.196.468a3.556 3.556 0 011.512 1.332c.36.564.54 1.224.54 1.98 0 .768-.186 1.446-.558 2.034a3.733 3.733 0 01-1.548 1.368c-.648.312-1.38.468-2.196.468-1.668 0-2.946-.546-3.834-1.638-.888-1.104-1.332-2.658-1.332-4.662 0-1.404.24-2.592.72-3.564s1.152-1.704 2.016-2.196c.864-.504 1.872-.756 3.024-.756 1.248 0 2.244.228 2.988.684l-.522 1.044c-.6-.396-1.416-.594-2.448-.594-1.392 0-2.484.444-3.276 1.332-.792.876-1.188 2.154-1.188 3.834 0 .3.018.642.054 1.026a3.351 3.351 0 011.494-1.584c.684-.384 1.47-.576 2.358-.576zm-.108 6.552c.912 0 1.65-.246 2.214-.738.576-.504.864-1.17.864-1.998 0-.828-.288-1.488-.864-1.98-.564-.492-1.332-.738-2.304-.738-.636 0-1.2.12-1.692.36-.48.24-.858.57-1.134.99-.276.42-.414.888-.414 1.404 0 .48.126.924.378 1.332.264.408.648.738 1.152.99.504.252 1.104.378 1.8.378zm13.075-5.616c.792.264 1.398.66 1.818 1.188.432.528.648 1.164.648 1.908 0 .732-.198 1.374-.594 1.926-.396.54-.966.96-1.71 1.26-.732.288-1.596.432-2.592.432-1.512 0-2.7-.324-3.564-.972-.864-.648-1.296-1.53-1.296-2.646 0-.756.204-1.392.612-1.908.42-.528 1.026-.924 1.818-1.188-.648-.252-1.14-.612-1.476-1.08-.336-.48-.504-1.044-.504-1.692 0-1.02.396-1.83 1.188-2.43.804-.6 1.878-.9 3.222-.9.888 0 1.662.138 2.322.414.672.264 1.194.648 1.566 1.152.372.504.558 1.092.558 1.764 0 .648-.174 1.212-.522 1.692-.348.468-.846.828-1.494 1.08zm-5.544-2.736c0 .696.276 1.248.828 1.656.552.408 1.314.612 2.286.612s1.734-.204 2.286-.612c.564-.408.846-.954.846-1.638 0-.708-.288-1.266-.864-1.674-.564-.408-1.32-.612-2.268-.612-.96 0-1.722.204-2.286.612-.552.408-.828.96-.828 1.656zm3.114 8.352c1.116 0 1.986-.228 2.61-.684.636-.456.954-1.074.954-1.854s-.318-1.392-.954-1.836c-.624-.456-1.494-.684-2.61-.684-1.104 0-1.974.228-2.61.684-.624.444-.936 1.056-.936 1.836 0 .792.312 1.416.936 1.872.624.444 1.494.666 2.61.666zm6.834-4.446h4.716v1.116h-4.716v-1.116zm15.122 4.284V76h-8.838v-.918l5.238-5.13c.66-.648 1.104-1.206 1.332-1.674.24-.48.36-.96.36-1.44 0-.744-.258-1.32-.774-1.728-.504-.42-1.23-.63-2.178-.63-1.476 0-2.622.468-3.438 1.404l-.918-.792a4.846 4.846 0 011.872-1.332c.768-.312 1.632-.468 2.592-.468 1.284 0 2.298.306 3.042.918.756.6 1.134 1.428 1.134 2.484 0 .648-.144 1.272-.432 1.872-.288.6-.834 1.29-1.638 2.07l-4.284 4.212h6.93zm11.915-2.16h-2.52V76h-1.296v-3.312h-7.11v-.936l6.678-8.352h1.44l-6.444 8.136h5.472V68.62h1.26v2.916h2.52v1.152zm4.432-4.122c1.824 0 3.15.33 3.978.99.84.648 1.26 1.56 1.26 2.736 0 .732-.174 1.386-.522 1.962-.336.576-.846 1.032-1.53 1.368-.684.324-1.524.486-2.52.486-.9 0-1.758-.144-2.574-.432-.804-.3-1.452-.696-1.944-1.188l.63-1.026c.42.432.972.786 1.656 1.062a6.096 6.096 0 002.214.396c1.044 0 1.848-.234 2.412-.702.576-.468.864-1.092.864-1.872 0-.864-.324-1.518-.972-1.962-.636-.444-1.716-.666-3.24-.666h-2.682l.648-6.318h6.894v1.152h-5.76l-.432 4.014h1.62zm17.593 4.122h-2.52V76h-1.296v-3.312h-7.11v-.936l6.678-8.352h1.44l-6.444 8.136h5.472V68.62h1.26v2.916h2.52v1.152zM38.235 122.46c1.188 0 2.117.342 2.79 1.026.684.684 1.026 1.692 1.026 3.024V132h-1.279v-5.364c0-.984-.24-1.734-.72-2.25-.468-.516-1.133-.774-1.998-.774-.983 0-1.758.306-2.322.918-.563.6-.846 1.434-.846 2.502V132h-1.278v-5.364c0-.984-.24-1.734-.72-2.25-.468-.516-1.14-.774-2.015-.774-.973 0-1.747.306-2.323.918-.564.6-.846 1.434-.846 2.502V132h-1.277v-9.468h1.224v1.728a3.415 3.415 0 011.404-1.332c.6-.312 1.29-.468 2.07-.468.791 0 1.475.168 2.051.504.588.336 1.026.834 1.314 1.494A3.645 3.645 0 0135.984 123c.66-.36 1.41-.54 2.25-.54zm11.187 9.63c-.912 0-1.734-.204-2.466-.612a4.594 4.594 0 01-1.729-1.728c-.42-.732-.63-1.56-.63-2.484 0-.924.21-1.752.63-2.484a4.465 4.465 0 011.729-1.71c.731-.408 1.553-.612 2.465-.612.913 0 1.735.204 2.467.612a4.34 4.34 0 011.71 1.71c.42.732.63 1.56.63 2.484 0 .924-.21 1.752-.63 2.484a4.465 4.465 0 01-1.71 1.728c-.732.408-1.554.612-2.466.612zm0-1.134c.672 0 1.272-.15 1.8-.45.54-.312.96-.75 1.26-1.314.3-.564.45-1.206.45-1.926s-.15-1.362-.45-1.926c-.3-.564-.72-.996-1.26-1.296-.529-.312-1.129-.468-1.8-.468-.672 0-1.278.156-1.819.468-.528.3-.947.732-1.26 1.296-.3.564-.45 1.206-.45 1.926s.15 1.362.45 1.926a3.406 3.406 0 001.26 1.314c.54.3 1.146.45 1.819.45zm12.239-8.496c1.188 0 2.13.348 2.826 1.044.708.684 1.062 1.686 1.062 3.006V132H64.27v-5.364c0-.984-.246-1.734-.738-2.25s-1.194-.774-2.106-.774c-1.02 0-1.83.306-2.43.918-.588.6-.882 1.434-.882 2.502V132h-1.278v-9.468h1.224v1.746a3.508 3.508 0 011.44-1.332c.624-.324 1.344-.486 2.16-.486zm12.343 8.964c-.24.216-.54.384-.9.504a3.683 3.683 0 01-1.098.162c-.888 0-1.572-.24-2.052-.72s-.72-1.158-.72-2.034v-5.724h-1.692v-1.08h1.692v-2.07h1.278v2.07h2.88v1.08h-2.88v5.652c0 .564.138.996.414 1.296.288.288.696.432 1.224.432.264 0 .516-.042.756-.126.252-.084.468-.204.648-.36l.45.918zm2.327-8.892h1.278V132H76.33v-9.468zm.648-2.07a.905.905 0 01-.666-.27.884.884 0 01-.27-.648c0-.24.09-.45.27-.63.18-.18.402-.27.666-.27s.486.09.666.27c.18.168.27.372.27.612 0 .264-.09.486-.27.666a.905.905 0 01-.666.27zm8.11 11.628c-.936 0-1.776-.204-2.52-.612a4.465 4.465 0 01-1.728-1.71c-.42-.744-.63-1.578-.63-2.502 0-.924.21-1.752.63-2.484a4.465 4.465 0 011.728-1.71c.744-.408 1.584-.612 2.52-.612.816 0 1.542.162 2.178.486a3.561 3.561 0 011.53 1.386l-.954.648a2.917 2.917 0 00-1.188-1.044 3.452 3.452 0 00-1.566-.36c-.684 0-1.302.156-1.854.468-.54.3-.966.732-1.278 1.296-.3.564-.45 1.206-.45 1.926 0 .732.15 1.38.45 1.944a3.4 3.4 0 001.278 1.296c.552.3 1.17.45 1.854.45.564 0 1.086-.114 1.566-.342.48-.228.876-.576 1.188-1.044l.954.648a3.679 3.679 0 01-1.53 1.404c-.648.312-1.374.468-2.178.468zm10.902-9.63c1.188 0 2.13.348 2.826 1.044.708.684 1.062 1.686 1.062 3.006V132H98.6v-5.364c0-.984-.246-1.734-.738-2.25s-1.194-.774-2.106-.774c-1.02 0-1.83.306-2.43.918-.588.6-.882 1.434-.882 2.502V132h-1.278v-13.356h1.278v5.544a3.465 3.465 0 011.44-1.278c.612-.3 1.314-.45 2.106-.45zm15.637 5.202h-7.92c.072.984.45 1.782 1.134 2.394.684.6 1.548.9 2.592.9a4.19 4.19 0 001.62-.306 3.635 3.635 0 001.278-.936l.72.828c-.42.504-.948.888-1.584 1.152a5.26 5.26 0 01-2.07.396c-.972 0-1.836-.204-2.592-.612a4.558 4.558 0 01-1.746-1.728c-.42-.732-.63-1.56-.63-2.484 0-.924.198-1.752.594-2.484a4.45 4.45 0 011.656-1.71c.708-.408 1.5-.612 2.376-.612.876 0 1.662.204 2.358.612a4.323 4.323 0 011.638 1.71c.396.72.594 1.548.594 2.484l-.018.396zm-4.572-4.104c-.912 0-1.68.294-2.304.882-.612.576-.96 1.332-1.044 2.268h6.714c-.084-.936-.438-1.692-1.062-2.268-.612-.588-1.38-.882-2.304-.882zm7.191-4.914h1.278V132h-1.278v-13.356zm4.834 0h1.278V132h-1.278v-13.356zm8.704 13.446c-.912 0-1.734-.204-2.466-.612a4.594 4.594 0 01-1.728-1.728c-.42-.732-.63-1.56-.63-2.484 0-.924.21-1.752.63-2.484a4.465 4.465 0 011.728-1.71c.732-.408 1.554-.612 2.466-.612.912 0 1.734.204 2.466.612a4.34 4.34 0 011.71 1.71c.42.732.63 1.56.63 2.484 0 .924-.21 1.752-.63 2.484a4.465 4.465 0 01-1.71 1.728c-.732.408-1.554.612-2.466.612zm0-1.134c.672 0 1.272-.15 1.8-.45.54-.312.96-.75 1.26-1.314.3-.564.45-1.206.45-1.926s-.15-1.362-.45-1.926c-.3-.564-.72-.996-1.26-1.296-.528-.312-1.128-.468-1.8-.468-.672 0-1.278.156-1.818.468-.528.3-.948.732-1.26 1.296-.3.564-.45 1.206-.45 1.926s.15 1.362.45 1.926a3.406 3.406 0 001.26 1.314c.54.3 1.146.45 1.818.45zm14.975-11.664c1.608 0 3.042.336 4.302 1.008a7.21 7.21 0 012.97 2.808c.708 1.2 1.062 2.574 1.062 4.122 0 1.524-.264 2.718-.792 3.582-.528.852-1.26 1.278-2.196 1.278-.588 0-1.068-.174-1.44-.522-.36-.348-.558-.828-.594-1.44a3.829 3.829 0 01-1.476 1.458c-.624.336-1.332.504-2.124.504a4.48 4.48 0 01-2.286-.594 4.475 4.475 0 01-1.602-1.674c-.384-.708-.576-1.506-.576-2.394 0-.888.192-1.68.576-2.376.396-.708.93-1.26 1.602-1.656a4.48 4.48 0 012.286-.594c.768 0 1.458.168 2.07.504a3.774 3.774 0 011.494 1.386v-1.818h1.17v6.822c0 .48.102.828.306 1.044.204.216.474.324.81.324.564 0 1.008-.336 1.332-1.008.336-.672.504-1.608.504-2.808 0-1.392-.312-2.616-.936-3.672a6.401 6.401 0 00-2.628-2.484c-1.116-.588-2.394-.882-3.834-.882-1.452 0-2.742.306-3.87.918a6.448 6.448 0 00-2.61 2.556c-.624 1.092-.936 2.34-.936 3.744 0 1.404.306 2.658.918 3.762a6.6 6.6 0 002.592 2.574c1.116.612 2.394.918 3.834.918.564 0 1.152-.066 1.764-.198a6.55 6.55 0 001.692-.594l.306.882a7.2 7.2 0 01-1.8.612 9.353 9.353 0 01-1.962.216c-1.632 0-3.078-.348-4.338-1.044a7.533 7.533 0 01-2.952-2.898c-.696-1.248-1.044-2.658-1.044-4.23 0-1.584.354-2.988 1.062-4.212a7.38 7.38 0 012.97-2.88c1.284-.696 2.742-1.044 4.374-1.044zm-.126 11.754c.648 0 1.23-.15 1.746-.45.516-.3.924-.72 1.224-1.26.3-.552.45-1.188.45-1.908 0-.708-.15-1.332-.45-1.872a3.098 3.098 0 00-1.224-1.26 3.41 3.41 0 00-1.746-.45c-.66 0-1.254.15-1.782.45-.516.3-.924.72-1.224 1.26-.288.54-.432 1.164-.432 1.872 0 .708.144 1.338.432 1.89.3.54.708.966 1.224 1.278.528.3 1.122.45 1.782.45zm13.702 1.044a7.545 7.545 0 01-2.214-.324c-.696-.228-1.242-.51-1.638-.846l.576-1.008c.396.312.894.57 1.494.774.6.192 1.224.288 1.872.288.864 0 1.5-.132 1.908-.396.42-.276.63-.66.63-1.152 0-.348-.114-.618-.342-.81a2.116 2.116 0 00-.864-.45c-.348-.108-.81-.21-1.386-.306a17.522 17.522 0 01-1.854-.432 2.863 2.863 0 01-1.206-.774c-.324-.36-.486-.858-.486-1.494 0-.792.33-1.44.99-1.944.66-.504 1.578-.756 2.754-.756.612 0 1.224.084 1.836.252.612.156 1.116.366 1.512.63l-.558 1.026c-.78-.54-1.71-.81-2.79-.81-.816 0-1.434.144-1.854.432-.408.288-.612.666-.612 1.134 0 .36.114.648.342.864.24.216.534.378.882.486.348.096.828.198 1.44.306.756.144 1.362.288 1.818.432.456.144.846.39 1.17.738.324.348.486.828.486 1.44 0 .828-.348 1.488-1.044 1.98-.684.48-1.638.72-2.862.72zm14.512-4.428h-7.92c.072.984.45 1.782 1.134 2.394.684.6 1.548.9 2.592.9a4.19 4.19 0 001.62-.306 3.635 3.635 0 001.278-.936l.72.828c-.42.504-.948.888-1.584 1.152a5.26 5.26 0 01-2.07.396c-.972 0-1.836-.204-2.592-.612a4.558 4.558 0 01-1.746-1.728c-.42-.732-.63-1.56-.63-2.484 0-.924.198-1.752.594-2.484a4.45 4.45 0 011.656-1.71c.708-.408 1.5-.612 2.376-.612.876 0 1.662.204 2.358.612a4.323 4.323 0 011.638 1.71c.396.72.594 1.548.594 2.484l-.018.396zm-4.572-4.104c-.912 0-1.68.294-2.304.882-.612.576-.96 1.332-1.044 2.268h6.714c-.084-.936-.438-1.692-1.062-2.268-.612-.588-1.38-.882-2.304-.882zm8.416.828c.3-.636.744-1.116 1.332-1.44.6-.324 1.338-.486 2.214-.486v1.242l-.306-.018c-.996 0-1.776.306-2.34.918-.564.612-.846 1.47-.846 2.574V132h-1.278v-9.468h1.224v1.854zm14.22-1.854L184.7 132h-1.314l-4.194-9.468h1.332l3.546 8.064 3.582-8.064h1.26zm1.8 0h1.278V132h-1.278v-9.468zm.648-2.07a.905.905 0 01-.666-.27.884.884 0 01-.27-.648c0-.24.09-.45.27-.63.18-.18.402-.27.666-.27s.486.09.666.27c.18.168.27.372.27.612 0 .264-.09.486-.27.666a.905.905 0 01-.666.27zm8.11 11.628c-.936 0-1.776-.204-2.52-.612a4.465 4.465 0 01-1.728-1.71c-.42-.744-.63-1.578-.63-2.502 0-.924.21-1.752.63-2.484a4.465 4.465 0 011.728-1.71c.744-.408 1.584-.612 2.52-.612.816 0 1.542.162 2.178.486a3.561 3.561 0 011.53 1.386l-.954.648a2.917 2.917 0 00-1.188-1.044 3.452 3.452 0 00-1.566-.36c-.684 0-1.302.156-1.854.468-.54.3-.966.732-1.278 1.296-.3.564-.45 1.206-.45 1.926 0 .732.15 1.38.45 1.944a3.4 3.4 0 001.278 1.296c.552.3 1.17.45 1.854.45.564 0 1.086-.114 1.566-.342.48-.228.876-.576 1.188-1.044l.954.648a3.679 3.679 0 01-1.53 1.404c-.648.312-1.374.468-2.178.468zm14.304-4.428h-7.92c.072.984.45 1.782 1.134 2.394.684.6 1.548.9 2.592.9a4.19 4.19 0 001.62-.306 3.635 3.635 0 001.278-.936l.72.828c-.42.504-.948.888-1.584 1.152a5.26 5.26 0 01-2.07.396c-.972 0-1.836-.204-2.592-.612a4.558 4.558 0 01-1.746-1.728c-.42-.732-.63-1.56-.63-2.484 0-.924.198-1.752.594-2.484a4.45 4.45 0 011.656-1.71c.708-.408 1.5-.612 2.376-.612.876 0 1.662.204 2.358.612a4.323 4.323 0 011.638 1.71c.396.72.594 1.548.594 2.484l-.018.396zm-4.572-4.104c-.912 0-1.68.294-2.304.882-.612.576-.96 1.332-1.044 2.268h6.714c-.084-.936-.438-1.692-1.062-2.268-.612-.588-1.38-.882-2.304-.882zm7.317 8.532a.934.934 0 01-.684-.288.989.989 0 01-.27-.702c0-.276.09-.504.27-.684a.934.934 0 01.684-.288c.264 0 .492.096.684.288.192.18.288.408.288.684 0 .276-.096.51-.288.702a.934.934 0 01-.684.288zm7.349 0c-.936 0-1.776-.204-2.52-.612a4.465 4.465 0 01-1.728-1.71c-.42-.744-.63-1.578-.63-2.502 0-.924.21-1.752.63-2.484a4.465 4.465 0 011.728-1.71c.744-.408 1.584-.612 2.52-.612.816 0 1.542.162 2.178.486a3.561 3.561 0 011.53 1.386l-.954.648a2.917 2.917 0 00-1.188-1.044 3.452 3.452 0 00-1.566-.36c-.684 0-1.302.156-1.854.468-.54.3-.966.732-1.278 1.296-.3.564-.45 1.206-.45 1.926 0 .732.15 1.38.45 1.944a3.4 3.4 0 001.278 1.296c.552.3 1.17.45 1.854.45.564 0 1.086-.114 1.566-.342.48-.228.876-.576 1.188-1.044l.954.648a3.679 3.679 0 01-1.53 1.404c-.648.312-1.374.468-2.178.468zm9.93 0c-.912 0-1.734-.204-2.466-.612a4.594 4.594 0 01-1.728-1.728c-.42-.732-.63-1.56-.63-2.484 0-.924.21-1.752.63-2.484a4.465 4.465 0 011.728-1.71c.732-.408 1.554-.612 2.466-.612.912 0 1.734.204 2.466.612a4.34 4.34 0 011.71 1.71c.42.732.63 1.56.63 2.484 0 .924-.21 1.752-.63 2.484a4.465 4.465 0 01-1.71 1.728c-.732.408-1.554.612-2.466.612zm0-1.134c.672 0 1.272-.15 1.8-.45.54-.312.96-.75 1.26-1.314.3-.564.45-1.206.45-1.926s-.15-1.362-.45-1.926c-.3-.564-.72-.996-1.26-1.296-.528-.312-1.128-.468-1.8-.468-.672 0-1.278.156-1.818.468-.528.3-.948.732-1.26 1.296-.3.564-.45 1.206-.45 1.926s.15 1.362.45 1.926a3.406 3.406 0 001.26 1.314c.54.3 1.146.45 1.818.45zm19.224-8.496c1.188 0 2.118.342 2.79 1.026.684.684 1.026 1.692 1.026 3.024V132h-1.278v-5.364c0-.984-.24-1.734-.72-2.25-.468-.516-1.134-.774-1.998-.774-.984 0-1.758.306-2.322.918-.564.6-.846 1.434-.846 2.502V132h-1.278v-5.364c0-.984-.24-1.734-.72-2.25-.468-.516-1.14-.774-2.016-.774-.972 0-1.746.306-2.322.918-.564.6-.846 1.434-.846 2.502V132h-1.278v-9.468h1.224v1.728a3.415 3.415 0 011.404-1.332c.6-.312 1.29-.468 2.07-.468.792 0 1.476.168 2.052.504.588.336 1.026.834 1.314 1.494a3.645 3.645 0 011.494-1.458c.66-.36 1.41-.54 2.25-.54zM28.24 176.552v4.95h6.515v1.152H28.24V188h-1.332v-12.6h8.64v1.152H28.24zm10.836 3.834c.3-.636.744-1.116 1.332-1.44.6-.324 1.338-.486 2.214-.486v1.242l-.306-.018c-.996 0-1.776.306-2.34.918-.564.612-.846 1.47-.846 2.574V188h-1.278v-9.468h1.224v1.854zm9.642 7.704c-.912 0-1.734-.204-2.466-.612a4.594 4.594 0 01-1.728-1.728c-.42-.732-.63-1.56-.63-2.484 0-.924.21-1.752.63-2.484a4.465 4.465 0 011.728-1.71c.732-.408 1.554-.612 2.466-.612.912 0 1.734.204 2.466.612a4.34 4.34 0 011.71 1.71c.42.732.63 1.56.63 2.484 0 .924-.21 1.752-.63 2.484a4.465 4.465 0 01-1.71 1.728c-.732.408-1.554.612-2.466.612zm0-1.134c.672 0 1.272-.15 1.8-.45.54-.312.96-.75 1.26-1.314.3-.564.45-1.206.45-1.926s-.15-1.362-.45-1.926c-.3-.564-.72-.996-1.26-1.296-.528-.312-1.128-.468-1.8-.468-.672 0-1.278.156-1.818.468-.528.3-.948.732-1.26 1.296-.3.564-.45 1.206-.45 1.926s.15 1.362.45 1.926a3.406 3.406 0 001.26 1.314c.54.3 1.146.45 1.818.45zm19.224-8.496c1.188 0 2.118.342 2.79 1.026.684.684 1.026 1.692 1.026 3.024V188H70.48v-5.364c0-.984-.24-1.734-.72-2.25-.468-.516-1.134-.774-1.998-.774-.984 0-1.758.306-2.322.918-.564.6-.846 1.434-.846 2.502V188h-1.278v-5.364c0-.984-.24-1.734-.72-2.25-.468-.516-1.14-.774-2.016-.774-.972 0-1.746.306-2.322.918-.564.6-.846 1.434-.846 2.502V188h-1.278v-9.468h1.224v1.728a3.415 3.415 0 011.404-1.332c.6-.312 1.29-.468 2.07-.468.792 0 1.476.168 2.052.504.588.336 1.026.834 1.314 1.494A3.645 3.645 0 0165.692 179c.66-.36 1.41-.54 2.25-.54zm16.168 9.648c-.972 0-1.842-.258-2.61-.774-.756-.516-1.35-1.254-1.782-2.214-.42-.972-.63-2.112-.63-3.42 0-1.308.21-2.442.63-3.402.432-.972 1.026-1.716 1.782-2.232.768-.516 1.638-.774 2.61-.774s1.836.258 2.592.774c.768.516 1.368 1.26 1.8 2.232.432.96.648 2.094.648 3.402 0 1.308-.216 2.448-.648 3.42-.432.96-1.032 1.698-1.8 2.214-.756.516-1.62.774-2.592.774zm0-1.188c.732 0 1.374-.204 1.926-.612.564-.408 1.002-1.002 1.314-1.782.312-.78.468-1.722.468-2.826s-.156-2.046-.468-2.826c-.312-.78-.75-1.374-1.314-1.782-.552-.408-1.194-.612-1.926-.612s-1.38.204-1.944.612c-.552.408-.984 1.002-1.296 1.782-.312.78-.468 1.722-.468 2.826s.156 2.046.468 2.826c.312.78.744 1.374 1.296 1.782a3.231 3.231 0 001.944.612zm15.648-11.52v.918L94.484 188H93.08l5.184-11.448h-6.48v2.358h-1.278v-3.51h9.252zm2.328 5.022a.934.934 0 01-.684-.288.989.989 0 01-.27-.702c0-.276.09-.504.27-.684a.934.934 0 01.684-.288c.264 0 .492.096.684.288.192.18.288.408.288.684 0 .276-.096.51-.288.702a.934.934 0 01-.684.288zm0 7.668a.934.934 0 01-.684-.288.989.989 0 01-.27-.702c0-.276.09-.504.27-.684a.934.934 0 01.684-.288c.264 0 .492.096.684.288.192.18.288.408.288.684 0 .276-.096.51-.288.702a.934.934 0 01-.684.288zm7.864.018c-.972 0-1.842-.258-2.61-.774-.756-.516-1.35-1.254-1.782-2.214-.42-.972-.63-2.112-.63-3.42 0-1.308.21-2.442.63-3.402.432-.972 1.026-1.716 1.782-2.232.768-.516 1.638-.774 2.61-.774s1.836.258 2.592.774c.768.516 1.368 1.26 1.8 2.232.432.96.648 2.094.648 3.402 0 1.308-.216 2.448-.648 3.42-.432.96-1.032 1.698-1.8 2.214-.756.516-1.62.774-2.592.774zm0-1.188c.732 0 1.374-.204 1.926-.612.564-.408 1.002-1.002 1.314-1.782.312-.78.468-1.722.468-2.826s-.156-2.046-.468-2.826c-.312-.78-.75-1.374-1.314-1.782-.552-.408-1.194-.612-1.926-.612s-1.38.204-1.944.612c-.552.408-.984 1.002-1.296 1.782-.312.78-.468 1.722-.468 2.826s.156 2.046.468 2.826c.312.78.744 1.374 1.296 1.782a3.231 3.231 0 001.944.612zm10.208-6.354c1.824 0 3.15.33 3.978.99.84.648 1.26 1.56 1.26 2.736 0 .732-.174 1.386-.522 1.962-.336.576-.846 1.032-1.53 1.368-.684.324-1.524.486-2.52.486-.9 0-1.758-.144-2.574-.432-.804-.3-1.452-.696-1.944-1.188l.63-1.026c.42.432.972.786 1.656 1.062a6.096 6.096 0 002.214.396c1.044 0 1.848-.234 2.412-.702.576-.468.864-1.092.864-1.872 0-.864-.324-1.518-.972-1.962-.636-.444-1.716-.666-3.24-.666h-2.682l.648-6.318h6.894v1.152h-5.76l-.432 4.014h1.62zm15.901 4.068h-7.02L127.527 188h-1.386l5.76-12.6h1.314l5.76 12.6h-1.404l-1.512-3.366zm-.486-1.08l-3.024-6.768-3.024 6.768h6.048zm18.573-8.154V188h-1.278v-10.08l-4.95 8.478h-.63l-4.95-8.424V188h-1.278v-12.6h1.098l5.472 9.342 5.418-9.342h1.098zm13.532 12.024c-.24.216-.54.384-.9.504a3.683 3.683 0 01-1.098.162c-.888 0-1.572-.24-2.052-.72s-.72-1.158-.72-2.034v-5.724h-1.692v-1.08h1.692v-2.07h1.278v2.07h2.88v1.08h-2.88v5.652c0 .564.138.996.414 1.296.288.288.696.432 1.224.432.264 0 .516-.042.756-.126.252-.084.468-.204.648-.36l.45.918zm5.863.666c-.912 0-1.734-.204-2.466-.612a4.594 4.594 0 01-1.728-1.728c-.42-.732-.63-1.56-.63-2.484 0-.924.21-1.752.63-2.484a4.465 4.465 0 011.728-1.71c.732-.408 1.554-.612 2.466-.612.912 0 1.734.204 2.466.612a4.34 4.34 0 011.71 1.71c.42.732.63 1.56.63 2.484 0 .924-.21 1.752-.63 2.484a4.465 4.465 0 01-1.71 1.728c-.732.408-1.554.612-2.466.612zm0-1.134c.672 0 1.272-.15 1.8-.45.54-.312.96-.75 1.26-1.314.3-.564.45-1.206.45-1.926s-.15-1.362-.45-1.926c-.3-.564-.72-.996-1.26-1.296-.528-.312-1.128-.468-1.8-.468-.672 0-1.278.156-1.818.468-.528.3-.948.732-1.26 1.296-.3.564-.45 1.206-.45 1.926s.15 1.362.45 1.926a3.406 3.406 0 001.26 1.314c.54.3 1.146.45 1.818.45zm14.772-11.556V188h-1.296v-11.448h-2.97V175.4h4.266zm6.936-.108c1.668 0 2.946.552 3.834 1.656.888 1.092 1.332 2.64 1.332 4.644 0 1.404-.24 2.592-.72 3.564s-1.152 1.71-2.016 2.214c-.864.492-1.872.738-3.024.738-1.248 0-2.244-.228-2.988-.684l.522-1.044c.6.396 1.416.594 2.448.594 1.392 0 2.484-.438 3.276-1.314.792-.888 1.188-2.172 1.188-3.852 0-.312-.018-.654-.054-1.026a3.445 3.445 0 01-1.494 1.602c-.684.372-1.47.558-2.358.558-.828 0-1.566-.156-2.214-.468a3.62 3.62 0 01-1.494-1.314c-.36-.576-.54-1.242-.54-1.998 0-.768.186-1.446.558-2.034a3.635 3.635 0 011.53-1.35c.66-.324 1.398-.486 2.214-.486zm.144 6.552c.636 0 1.194-.12 1.674-.36.492-.24.876-.57 1.152-.99.276-.42.414-.888.414-1.404 0-.48-.132-.924-.396-1.332-.252-.408-.63-.738-1.134-.99-.504-.252-1.104-.378-1.8-.378-.912 0-1.656.252-2.232.756-.564.492-.846 1.152-.846 1.98 0 .828.282 1.488.846 1.98.576.492 1.35.738 2.322.738zm7.872-1.422a.934.934 0 01-.684-.288.989.989 0 01-.27-.702c0-.276.09-.504.27-.684a.934.934 0 01.684-.288c.264 0 .492.096.684.288.192.18.288.408.288.684 0 .276-.096.51-.288.702a.934.934 0 01-.684.288zm0 7.668a.934.934 0 01-.684-.288.989.989 0 01-.27-.702c0-.276.09-.504.27-.684a.934.934 0 01.684-.288c.264 0 .492.096.684.288.192.18.288.408.288.684 0 .276-.096.51-.288.702a.934.934 0 01-.684.288zm7.127-7.29c1.32.072 2.322.432 3.006 1.08.696.636 1.044 1.47 1.044 2.502 0 .72-.174 1.362-.522 1.926-.348.552-.864.99-1.548 1.314-.684.324-1.518.486-2.502.486a7.73 7.73 0 01-2.592-.432c-.804-.3-1.452-.696-1.944-1.188l.63-1.026c.42.432.978.786 1.674 1.062a6.24 6.24 0 002.232.396c1.032 0 1.83-.222 2.394-.666.564-.456.846-1.08.846-1.872 0-.78-.282-1.392-.846-1.836-.564-.444-1.416-.666-2.556-.666h-.9v-.954l3.492-4.374h-6.444V175.4h8.1v.918l-3.564 4.482zm10.898 7.308c-.972 0-1.842-.258-2.61-.774-.756-.516-1.35-1.254-1.782-2.214-.42-.972-.63-2.112-.63-3.42 0-1.308.21-2.442.63-3.402.432-.972 1.026-1.716 1.782-2.232.768-.516 1.638-.774 2.61-.774s1.836.258 2.592.774c.768.516 1.368 1.26 1.8 2.232.432.96.648 2.094.648 3.402 0 1.308-.216 2.448-.648 3.42-.432.96-1.032 1.698-1.8 2.214-.756.516-1.62.774-2.592.774zm0-1.188c.732 0 1.374-.204 1.926-.612.564-.408 1.002-1.002 1.314-1.782.312-.78.468-1.722.468-2.826s-.156-2.046-.468-2.826c-.312-.78-.75-1.374-1.314-1.782-.552-.408-1.194-.612-1.926-.612s-1.38.204-1.944.612c-.552.408-.984 1.002-1.296 1.782-.312.78-.468 1.722-.468 2.826s.156 2.046.468 2.826c.312.78.744 1.374 1.296 1.782a3.231 3.231 0 001.944.612zm12.728-11.52c1.608 0 2.868.384 3.78 1.152.912.768 1.368 1.824 1.368 3.168s-.456 2.4-1.368 3.168c-.912.756-2.172 1.134-3.78 1.134h-3.384V188h-1.332v-12.6h4.716zm-.036 7.452c1.248 0 2.202-.27 2.862-.81.66-.552.99-1.326.99-2.322 0-1.02-.33-1.8-.99-2.34-.66-.552-1.614-.828-2.862-.828h-3.348v6.3h3.348zm21.15-7.452V188h-1.278v-10.08l-4.95 8.478h-.63l-4.95-8.424V188h-1.278v-12.6h1.098l5.472 9.342 5.418-9.342h1.098z" fill="#000"/></svg>